<svg width="74" height="78" viewBox="0 0 74 78" fill="none" xmlns="http://www.w3.org/2000/svg">
<path d="M36.4328 1.0631L36.5629 0.981658L36.4328 0.773834L36.3027 0.981658L36.4328 1.0631ZM36.4328 1.0631L36.5629 0.981717L36.563 0.981849L36.5633 0.982333L36.5645 0.984174L36.5689 0.991312L36.5861 1.01908C36.6012 1.04345 36.6233 1.0794 36.6517 1.12591C36.7084 1.21892 36.7901 1.3542 36.8902 1.52365C37.0904 1.86248 37.3643 2.33826 37.6596 2.88622C38.2486 3.97946 38.9279 5.36999 39.2712 6.53518C39.8897 8.63413 40.0877 9.90777 40.025 12.0984C39.9581 14.4337 39.6649 15.787 38.8185 17.9632C38.5024 18.7762 37.974 19.7537 37.528 20.5235C37.3043 20.9094 37.1003 21.2449 36.9522 21.484C36.8781 21.6036 36.818 21.6991 36.7763 21.7648L36.7282 21.8402L36.7156 21.8599L36.7124 21.8649L36.7115 21.8662L36.7113 21.8666L36.7112 21.8666L36.5823 21.7833M36.4328 1.0631L36.3027 0.981717L36.3026 0.981849L36.3023 0.982333L36.3011 0.984174L36.2967 0.991312L36.2795 1.01908C36.2644 1.04345 36.2423 1.0794 36.2139 1.12591C36.1572 1.21892 36.0755 1.3542 35.9754 1.52365C35.7752 1.86248 35.5013 2.33826 35.206 2.88622C34.617 3.97946 33.9377 5.36999 33.5944 6.53518C32.9763 8.63269 32.7529 9.90802 32.8407 12.1002C32.9348 14.4495 33.29 15.8036 34.1981 17.967C34.5414 18.7847 35.1075 19.7622 35.5843 20.5309C35.8233 20.9162 36.0411 21.2509 36.1991 21.4892C36.2782 21.6085 36.3423 21.7036 36.3867 21.7691L36.438 21.8443L36.4514 21.8639L36.4549 21.8689L36.4558 21.8702L36.456 21.8705L36.4561 21.8706L36.5823 21.7833M36.5823 21.7833L36.7112 21.8667L36.5866 22.0593L36.4561 21.8707L36.5823 21.7833Z" fill="url(#paint0_linear_98_1311)" stroke="#F6FCDF" stroke-width="0.306967"/>
<path d="M70.788 20.421L70.9211 20.4974L71.0432 20.2848L70.7986 20.2679L70.788 20.421ZM70.788 20.421L70.9211 20.4975L70.921 20.4976L70.9207 20.4981L70.9197 20.5L70.9155 20.5073L70.8991 20.5355C70.8847 20.5603 70.8634 20.5968 70.8357 20.6437C70.7804 20.7376 70.6995 20.8733 70.5972 21.0414C70.3926 21.3776 70.102 21.8434 69.7577 22.3619C69.0708 23.3965 68.1641 24.6507 67.298 25.5024C65.7378 27.0366 64.7076 27.8112 62.7456 28.7877C60.6541 29.8287 59.3222 30.2075 57.0039 30.486C56.1378 30.5901 55.0268 30.5844 54.1376 30.5535C53.6918 30.538 53.2998 30.5161 53.0191 30.4981C52.8787 30.4891 52.7661 30.481 52.6886 30.4752L52.5993 30.4683L52.5761 30.4664L52.5701 30.4659L52.5685 30.4658L52.5681 30.4658L52.568 30.4658L52.5808 30.3128M70.788 20.421L70.7985 20.2679L70.7984 20.2679L70.7978 20.2678L70.7956 20.2677L70.7872 20.2671L70.7546 20.265C70.726 20.2632 70.6839 20.2606 70.6295 20.2575C70.5207 20.2513 70.3629 20.2429 70.1663 20.2345C69.7731 20.2175 69.2244 20.1999 68.602 20.1976C67.3602 20.193 65.8136 20.2488 64.624 20.4947C62.4826 20.9375 61.2524 21.3412 59.36 22.4512C57.332 23.6407 56.3048 24.5919 54.8242 26.4121C54.2646 27.1 53.669 28.0598 53.2155 28.8425C52.9882 29.2348 52.7956 29.5846 52.6597 29.8363C52.5918 29.9621 52.538 30.0635 52.5012 30.1336L52.459 30.2142L52.4481 30.2353L52.4453 30.2407L52.4446 30.2421L52.4444 30.2425L52.4443 30.2426L52.5808 30.3128M52.5808 30.3128L52.568 30.4658L52.3393 30.4466L52.4443 30.2426L52.5808 30.3128Z" fill="url(#paint1_linear_98_1311)" stroke="#F6FCDF" stroke-width="0.306967"/>
<path d="M67.4616 59.3971L67.4569 59.5505L67.7019 59.558L67.6016 59.3343L67.4616 59.3971ZM67.4616 59.3971L67.4568 59.5505L67.4566 59.5505L67.4561 59.5505L67.4539 59.5504L67.4455 59.5501L67.4128 59.549C67.3842 59.548 67.342 59.5463 67.2876 59.544C67.1787 59.5395 67.0209 59.5321 66.8244 59.521C66.4315 59.4989 65.8837 59.4619 65.2641 59.4024C64.028 59.2838 62.4946 59.0748 61.3353 58.712C59.247 58.0584 58.0785 57.5145 56.2929 56.2438C54.3895 54.8892 53.428 53.8927 52.0903 51.9788C51.5905 51.2638 51.0722 50.2811 50.6806 49.4822C50.4843 49.0817 50.319 48.7255 50.2027 48.4694C50.1445 48.3414 50.0986 48.2383 50.0672 48.1671L50.0312 48.0851L50.0219 48.0638L50.0195 48.0582L50.0189 48.0568L50.0187 48.0564L50.0187 48.0563L50.1596 47.9956M67.4616 59.3971L67.6016 59.3342L67.6015 59.3341L67.6013 59.3335L67.6004 59.3316L67.5969 59.3239L67.5834 59.2942C67.5715 59.2681 67.554 59.2297 67.5311 59.1802C67.4854 59.0814 67.4184 58.9382 67.3333 58.7608C67.163 58.406 66.92 57.9137 66.6289 57.3635C66.0481 56.2659 65.2704 54.9279 64.4931 53.9944C63.0938 52.3141 62.1583 51.419 60.2878 50.2726C58.2831 49.0439 56.9603 48.5859 54.6573 48.1371C53.7868 47.9675 52.6597 47.8942 51.7556 47.8629C51.3025 47.8472 50.9032 47.842 50.6172 47.8407C50.4742 47.8401 50.3594 47.8404 50.2803 47.8409L50.1893 47.8417L50.1656 47.842L50.1594 47.8421L50.1579 47.8421L50.1574 47.8421L50.1573 47.8421L50.1596 47.9956M50.1596 47.9956L50.0187 48.0563L49.9279 47.8456L50.1573 47.8421L50.1596 47.9956Z" fill="url(#paint2_linear_98_1311)" stroke="#F6FCDF" stroke-width="0.306967"/>
<path d="M7.01574 58.437L7.02043 58.5904L6.77536 58.5979L6.8757 58.3742L7.01574 58.437ZM7.01574 58.437L7.0205 58.5904L7.02066 58.5904L7.02123 58.5904L7.0234 58.5903L7.0318 58.59L7.06445 58.5889C7.09309 58.5879 7.13528 58.5862 7.18971 58.584C7.29856 58.5794 7.45641 58.572 7.65291 58.5609C8.04583 58.5388 8.59358 58.5018 9.21318 58.4423C10.4493 58.3237 11.9827 58.1147 13.142 57.7519C15.2303 57.0983 16.3988 56.5544 18.1844 55.2837C20.0878 53.9291 21.0493 52.9326 22.387 51.0187C22.8868 50.3037 23.4051 49.321 23.7967 48.5221C23.993 48.1216 24.1583 47.7654 24.2746 47.5093C24.3328 47.3813 24.3787 47.2782 24.4101 47.207L24.4461 47.1251L24.4554 47.1037L24.4578 47.0981L24.4584 47.0967L24.4586 47.0963L24.4586 47.0962L24.3177 47.0355M7.01574 58.437L6.87573 58.3741L6.87579 58.374L6.87603 58.3735L6.87692 58.3715L6.88038 58.3638L6.89387 58.3341C6.90575 58.308 6.92331 58.2696 6.94618 58.2201C6.99192 58.1213 7.05889 57.9781 7.14402 57.8007C7.31426 57.4459 7.55725 56.9536 7.84838 56.4034C8.42922 55.3058 9.20691 53.9678 9.98421 53.0343C11.3835 51.354 12.319 50.4589 14.1895 49.3125C16.1941 48.0838 17.517 47.6258 19.82 47.177C20.6905 47.0074 21.8176 46.9341 22.7217 46.9028C23.1748 46.8871 23.5741 46.8819 23.8601 46.8806C24.0031 46.88 24.1179 46.8803 24.197 46.8808L24.288 46.8816L24.3117 46.8819L24.3179 46.882L24.3194 46.882L24.3198 46.882L24.32 46.882L24.3177 47.0355M24.3177 47.0355L24.4586 47.0962L24.5494 46.8855L24.32 46.882L24.3177 47.0355Z" fill="url(#paint3_linear_98_1311)" stroke="#F6FCDF" stroke-width="0.306967"/>
<path d="M22.4398 32.3449L22.4351 32.4983L22.6802 32.5058L22.5799 32.2821L22.4398 32.3449ZM22.4398 32.3449L22.4351 32.4983L22.4349 32.4983L22.4343 32.4983L22.4322 32.4982L22.4238 32.4979L22.3911 32.4968C22.3625 32.4957 22.3203 32.4941 22.2659 32.4918C22.157 32.4872 21.9992 32.4799 21.8027 32.4688C21.4097 32.4467 20.862 32.4097 20.2424 32.3502C19.0062 32.2316 17.4728 32.0226 16.3136 31.6598C14.2253 31.0062 13.0567 30.4622 11.2712 29.1915C9.36775 27.837 8.40622 26.8405 7.06854 24.9266C6.56882 24.2116 6.05045 23.2289 5.65886 22.43C5.46257 22.0295 5.29723 21.6733 5.18093 21.4172C5.12277 21.2892 5.07686 21.1861 5.04544 21.1149L5.00948 21.0329L5.00018 21.0116L4.99779 21.006L4.99718 21.0046L4.99702 21.0042L4.99697 21.0041L5.1379 20.9433M22.4398 32.3449L22.5798 32.282L22.5798 32.2819L22.5795 32.2813L22.5786 32.2794L22.5752 32.2717L22.5617 32.2419C22.5498 32.2159 22.5323 32.1775 22.5094 32.128C22.4636 32.0291 22.3967 31.886 22.3115 31.7086C22.1413 31.3538 21.8983 30.8615 21.6072 30.3113C21.0263 29.2137 20.2487 27.8757 19.4714 26.9422C18.0721 25.2618 17.1366 24.3668 15.266 23.2203C13.2614 21.9917 11.9386 21.5337 9.63553 21.0849C8.76507 20.9153 7.63792 20.842 6.73389 20.8107C6.28072 20.795 5.88147 20.7898 5.59546 20.7885C5.45243 20.7879 5.33766 20.7882 5.25855 20.7887L5.16754 20.7895L5.14382 20.7898L5.13771 20.7898L5.13614 20.7899L5.13572 20.7899L5.13561 20.7899L5.1379 20.9433M5.1379 20.9433L4.99695 21.0041L4.90615 20.7934L5.13555 20.7899L5.1379 20.9433Z" fill="url(#paint4_linear_98_1311)" stroke="#F6FCDF" stroke-width="0.306967"/>
<path d="M45.1177 22.6295L45.1804 22.7696L44.9411 22.8766L44.9649 22.6155L45.1177 22.6295ZM45.1177 22.6295L45.1805 22.7695L45.1806 22.7695L45.181 22.7693L45.1826 22.7686L45.1889 22.7658L45.213 22.7548C45.2341 22.7452 45.2653 22.731 45.3053 22.7126C45.3855 22.6756 45.5015 22.6215 45.6454 22.5528C45.9332 22.4153 46.3329 22.2191 46.7804 21.984C47.6731 21.5152 48.7658 20.887 49.5403 20.2588C50.9338 19.1286 51.6688 18.3627 52.6792 16.8655C53.7563 15.2696 54.2213 14.2299 54.7334 12.3912C54.9249 11.7034 55.062 10.8108 55.1511 10.0952C55.1957 9.73629 55.2286 9.41997 55.2502 9.19331C55.2611 9.07996 55.2691 8.98897 55.2745 8.92624L55.2805 8.85404L55.282 8.8352L55.2824 8.83034L55.2825 8.82907L55.2825 8.82874L55.2825 8.82864L55.1295 8.81686M45.1177 22.6295L44.9649 22.6155L44.9649 22.6153L44.9649 22.6149L44.9651 22.6131L44.9657 22.6063L44.9682 22.5799C44.9705 22.5568 44.9738 22.5228 44.9783 22.4789C44.9873 22.3911 45.0009 22.2638 45.0193 22.1053C45.0561 21.7885 45.1123 21.3469 45.1897 20.8473C45.3441 19.8509 45.5844 18.6136 45.9278 17.6774C46.5452 15.9942 47.0166 15.0381 48.1222 13.6072C49.3071 12.0737 50.1795 11.3242 51.7858 10.2804C52.3937 9.88536 53.2176 9.48339 53.8845 9.18182C54.2189 9.03059 54.5158 8.90379 54.7291 8.81477C54.8357 8.77025 54.9215 8.73516 54.9808 8.71116L55.049 8.68369L55.0668 8.67659L55.0714 8.67476L55.0726 8.67429L55.0729 8.67416L55.073 8.67413L55.1295 8.81686M55.1295 8.81686L55.2825 8.8286L55.3013 8.58399L55.0731 8.67411L55.1295 8.81686Z" fill="url(#paint5_linear_98_1311)" stroke="#F6FCDF" stroke-width="0.306967"/>
<path d="M27.6601 22.6295L27.5974 22.7696L27.8367 22.8766L27.813 22.6155L27.6601 22.6295ZM27.6601 22.6295L27.5974 22.7695L27.5973 22.7695L27.5968 22.7693L27.5952 22.7686L27.589 22.7658L27.5648 22.7548C27.5437 22.7452 27.5126 22.731 27.4725 22.7126C27.3923 22.6756 27.2763 22.6215 27.1324 22.5528C26.8446 22.4153 26.445 22.2191 25.9974 21.984C25.1048 21.5152 24.012 20.887 23.2375 20.2588C21.844 19.1286 21.109 18.3627 20.0986 16.8655C19.0216 15.2696 18.5566 14.2299 18.0445 12.3912C17.8529 11.7034 17.7159 10.8108 17.6268 10.0952C17.5821 9.73629 17.5493 9.41997 17.5276 9.19331C17.5168 9.07996 17.5087 8.98897 17.5034 8.92624L17.4974 8.85404L17.4959 8.8352L17.4955 8.83034L17.4954 8.82907L17.4954 8.82874L17.4953 8.82864L17.6484 8.81686M27.6601 22.6295L27.813 22.6155L27.813 22.6153L27.8129 22.6149L27.8127 22.6131L27.8121 22.6063L27.8096 22.5799C27.8074 22.5568 27.804 22.5228 27.7995 22.4789C27.7905 22.3911 27.7769 22.2638 27.7585 22.1053C27.7217 21.7885 27.6655 21.3469 27.5881 20.8473C27.4338 19.8509 27.1934 18.6136 26.85 17.6774C26.2326 15.9942 25.7612 15.0381 24.6556 13.6072C23.4707 12.0737 22.5983 11.3242 20.9921 10.2804C20.3841 9.88536 19.5603 9.48339 18.8934 9.18182C18.5589 9.03059 18.2621 8.90379 18.0488 8.81477C17.9421 8.77025 17.8563 8.73516 17.797 8.71116L17.7288 8.68369L17.711 8.67659L17.7064 8.67476L17.7052 8.67429L17.7049 8.67416L17.7048 8.67413L17.6484 8.81686M17.6484 8.81686L17.4953 8.8286L17.4766 8.58399L17.7048 8.67411L17.6484 8.81686Z" fill="url(#paint6_linear_98_1311)" stroke="#F6FCDF" stroke-width="0.306967"/>
<path d="M53.3821 38.866L53.272 38.973L53.0893 38.7849L53.3428 38.7177L53.3821 38.866ZM53.3821 38.866L53.272 38.973L53.2721 38.9731L53.2725 38.9735L53.2737 38.9747L53.2785 38.9796L53.297 38.9985C53.3133 39.0151 53.3373 39.0395 53.3684 39.0708C53.4306 39.1334 53.5212 39.2239 53.6351 39.3355C53.863 39.5587 54.1843 39.8668 54.5586 40.2066C55.3052 40.8843 56.27 41.6953 57.1258 42.2074C58.6654 43.1287 59.6369 43.5565 61.3897 43.9921C63.2582 44.4565 64.3944 44.5367 66.2972 44.3872C67.009 44.3312 67.8945 44.1538 68.5972 43.9921C68.9497 43.911 69.2581 43.8333 69.4784 43.7759C69.5886 43.7473 69.6768 43.7236 69.7376 43.7071L69.8075 43.688L69.8257 43.683L69.8304 43.6816L69.8316 43.6813L69.8319 43.6812L69.832 43.6812L69.7906 43.5334M53.3821 38.866L53.3428 38.7177L53.3429 38.7176L53.3434 38.7175L53.3451 38.7171L53.3517 38.7153L53.3773 38.7086C53.3998 38.7028 53.433 38.6943 53.4757 38.6835C53.5613 38.6618 53.6855 38.6309 53.8407 38.5939C54.1509 38.5198 54.585 38.4211 55.0809 38.3225C56.0697 38.1258 57.3144 37.9272 58.3117 37.9287C60.1045 37.9313 61.1643 38.0462 62.8876 38.5941C64.7344 39.1812 65.7376 39.7436 67.269 40.8944C67.8486 41.33 68.5088 41.966 69.0208 42.4891C69.2775 42.7514 69.4985 42.9868 69.6552 43.1566C69.7336 43.2415 69.796 43.3101 69.8389 43.3575L69.8881 43.4122L69.9009 43.4265L69.9042 43.4302L69.905 43.4311L69.9053 43.4314L69.9053 43.4314L69.7906 43.5334M69.7906 43.5334L69.832 43.6812L70.0683 43.6149L69.9053 43.4315L69.7906 43.5334Z" fill="url(#paint7_linear_98_1311)" stroke="#F6FCDF" stroke-width="0.306967"/>
<path d="M22.3519 39.2379L22.4521 39.3541L22.6507 39.1828L22.4042 39.0936L22.3519 39.2379ZM22.3519 39.2379L22.4521 39.3541L22.452 39.3542L22.4516 39.3545L22.4503 39.3557L22.4451 39.3601L22.425 39.3773C22.4073 39.3924 22.3812 39.4146 22.3475 39.443C22.28 39.4999 22.1818 39.582 22.0584 39.6831C21.8118 39.8854 21.4645 40.1639 21.0617 40.4694C20.2584 41.0787 19.2257 41.8014 18.3282 42.2361C16.7134 43.0181 15.7079 43.3586 13.9235 43.638C12.0213 43.9358 10.8825 43.9156 9.00029 43.5988C8.29624 43.4803 7.42983 43.2256 6.74405 43.0025C6.40015 42.8906 6.0998 42.7861 5.88538 42.7095C5.77814 42.6712 5.69234 42.6398 5.63327 42.6181L5.56535 42.5929L5.54765 42.5862L5.54309 42.5845L5.5419 42.5841L5.54158 42.5839L5.5415 42.5839L5.59578 42.4403M22.3519 39.2379L22.4041 39.0935L22.404 39.0935L22.4035 39.0933L22.4019 39.0927L22.3954 39.0904L22.3705 39.0815C22.3486 39.0737 22.3164 39.0623 22.2747 39.0477C22.1914 39.0186 22.0704 38.9769 21.9191 38.9263C21.6166 38.8252 21.1929 38.6886 20.7077 38.5466C19.74 38.2635 18.5176 37.9559 17.5241 37.8695C15.738 37.7141 14.6723 37.7351 12.9074 38.1289C11.016 38.5509 9.96708 39.0227 8.34019 40.034C7.72443 40.4168 7.01079 40.9921 6.45466 41.468C6.17577 41.7066 5.93496 41.9216 5.76383 42.0769C5.67825 42.1546 5.61005 42.2174 5.56318 42.2609L5.50935 42.311L5.49535 42.3241L5.49174 42.3275L5.49081 42.3284L5.49056 42.3286L5.49049 42.3287L5.59578 42.4403M5.59578 42.4403L5.54146 42.5839L5.31201 42.4971L5.49046 42.3287L5.59578 42.4403Z" fill="url(#paint8_linear_98_1311)" stroke="#F6FCDF" stroke-width="0.306967"/>
<path d="M64.776 48.2609L64.6659 48.3678L64.4833 48.1797L64.7367 48.1125L64.776 48.2609ZM64.776 48.2609L64.666 48.3678L64.666 48.3679L64.6662 48.3681L64.6668 48.3687L64.6692 48.3711L64.6781 48.3802L64.7123 48.4148C64.742 48.4447 64.7852 48.4879 64.8395 48.5411C64.948 48.6474 65.1011 48.7942 65.2795 48.9561C65.6341 49.278 66.0964 49.667 66.5092 49.914C67.2451 50.3544 67.7129 50.5605 68.5524 50.7692C69.447 50.9915 69.9943 51.0301 70.9045 50.9585C71.2482 50.9315 71.6727 50.8463 72.0066 50.7695C72.1746 50.7308 72.3215 50.6938 72.4265 50.6664C72.4791 50.6528 72.5211 50.6415 72.5502 50.6336L72.5837 50.6244L72.5925 50.622L72.5948 50.6214L72.5954 50.6212L72.5956 50.6211L72.5956 50.6211L72.5542 50.4733M64.776 48.2609L64.7367 48.1125L64.7368 48.1125L64.737 48.1124L64.7379 48.1122L64.7411 48.1114L64.7535 48.1081L64.8006 48.0961C64.8415 48.0857 64.9007 48.071 64.9747 48.0533C65.1225 48.018 65.3293 47.971 65.5656 47.924C66.0353 47.8306 66.6318 47.7351 67.1129 47.7358C67.9691 47.7371 68.4799 47.7923 69.3064 48.055C70.1918 48.3365 70.6753 48.6077 71.4074 49.1579C71.6873 49.3682 72.0037 49.6733 72.247 49.9218C72.3693 50.0469 72.4746 50.159 72.5493 50.24C72.5867 50.2804 72.6165 50.3132 72.637 50.3358L72.6605 50.362L72.6667 50.3689L72.6683 50.3707L72.6688 50.3712L72.6689 50.3714L72.6689 50.3714L72.5542 50.4733M72.5542 50.4733L72.5956 50.6211L72.8318 50.5549L72.6689 50.3714L72.5542 50.4733Z" fill="#1D4406" stroke="#F6FCDF" stroke-width="0.306967"/>
<path d="M9.18137 47.8374L9.28161 47.9536L9.48015 47.7823L9.23364 47.6931L9.18137 47.8374ZM9.18137 47.8374L9.28158 47.9536L9.28153 47.9537L9.28134 47.9538L9.28066 47.9544L9.27812 47.9566L9.26841 47.9649L9.23132 47.9963C9.19908 48.0235 9.15223 48.0627 9.09346 48.1109C8.97595 48.2072 8.81051 48.3399 8.61857 48.4855C8.23696 48.7749 7.74221 49.1216 7.30921 49.3313C6.53739 49.7051 6.05317 49.8691 5.19853 50.0029C4.28782 50.1455 3.73926 50.1357 2.8389 49.9842C2.49899 49.927 2.08359 49.8047 1.75779 49.6987C1.59389 49.6453 1.45077 49.5955 1.34858 49.559C1.29746 49.5408 1.25653 49.5258 1.22829 49.5154L1.19576 49.5034L1.18721 49.5002L1.18497 49.4993L1.18437 49.4991L1.18421 49.499L1.18416 49.499L1.23845 49.3554M9.18137 47.8374L9.2336 47.693L9.23353 47.693L9.2333 47.6929L9.23246 47.6926L9.22931 47.6915L9.21727 47.6872L9.17142 47.671C9.13161 47.6571 9.07389 47.6372 9.0018 47.6131C8.85768 47.5649 8.65582 47.4999 8.42463 47.4322C7.96496 47.2977 7.37917 47.15 6.89987 47.1083C6.04693 47.0341 5.5332 47.044 4.6868 47.2329C3.78008 47.4352 3.27447 47.6627 2.49677 48.1462C2.19943 48.331 1.85732 48.6071 1.5931 48.8332C1.46018 48.9469 1.34542 49.0494 1.26386 49.1234C1.22306 49.1604 1.19052 49.1904 1.16812 49.2112L1.14233 49.2352L1.13557 49.2415L1.1338 49.2432L1.13332 49.2436L1.13319 49.2437L1.13315 49.2438L1.23845 49.3554M1.23845 49.3554L1.18413 49.499L0.954684 49.4122L1.13313 49.2438L1.23845 49.3554Z" fill="#1D4406" stroke="#F6FCDF" stroke-width="0.306967"/>
<path d="M25.6009 56.4481L25.7544 56.4445L25.7482 56.1824L25.5226 56.3161L25.6009 56.4481ZM25.6009 56.4481L25.7544 56.4445L25.7544 56.4446L25.7544 56.4448L25.7544 56.4457L25.7545 56.4491L25.7547 56.4618L25.7554 56.5105C25.756 56.5526 25.7565 56.6137 25.7564 56.6897C25.7562 56.8416 25.7536 57.0537 25.7442 57.2944C25.7254 57.773 25.679 58.3753 25.566 58.843C25.3645 59.6766 25.1837 60.1548 24.7443 60.8999C24.2761 61.694 23.9202 62.1115 23.2314 62.7107C22.9713 62.937 22.613 63.1802 22.3242 63.3645C22.179 63.4573 22.0496 63.5362 21.9565 63.592C21.9099 63.6199 21.8724 63.642 21.8464 63.6572L21.8164 63.6746L21.8085 63.6792L21.8065 63.6804L21.8059 63.6807L21.8057 63.6808L21.8057 63.6808L21.7293 63.5477M25.6009 56.4481L25.5226 56.3161L25.5225 56.3161L25.5223 56.3162L25.5216 56.3167L25.5187 56.3184L25.5077 56.325L25.4661 56.3501C25.4301 56.372 25.3781 56.404 25.3137 56.4444C25.1849 56.5251 25.0065 56.6397 24.8074 56.7753C24.4116 57.045 23.9254 57.4037 23.5888 57.7474C22.9898 58.3592 22.6713 58.7623 22.2796 59.5361C21.8601 60.3649 21.7148 60.9 21.5943 61.8078C21.5483 62.1548 21.5442 62.5944 21.5511 62.9421C21.5545 63.117 21.5608 63.2707 21.5662 63.3807C21.5689 63.4358 21.5714 63.4799 21.5732 63.5104L21.5753 63.5456L21.5759 63.5548L21.5761 63.5573L21.5761 63.5579L21.5762 63.5581L21.5762 63.5582L21.7293 63.5477M21.7293 63.5477L21.8057 63.6809L21.5929 63.8029L21.5762 63.5582L21.7293 63.5477Z" fill="#1D4406" stroke="#F6FCDF" stroke-width="0.306967"/>
<path d="M47.6347 57.1212L47.4812 57.1176L47.4874 56.8555L47.713 56.9892L47.6347 57.1212ZM47.6347 57.1212L47.4812 57.1176L47.4812 57.1177L47.4812 57.118L47.4812 57.1189L47.4811 57.1222L47.4809 57.135L47.4802 57.1836C47.4796 57.2258 47.4791 57.2868 47.4792 57.3628C47.4794 57.5148 47.482 57.7269 47.4914 57.9676C47.5102 58.4461 47.5566 59.0485 47.6696 59.5161C47.8711 60.3497 48.0519 60.8279 48.4912 61.5731C48.9595 62.3671 49.3154 62.7846 50.0042 63.3839C50.2643 63.6101 50.6226 63.8533 50.9114 64.0377C51.0566 64.1304 51.186 64.2093 51.2791 64.2651C51.3257 64.293 51.3632 64.3151 51.3892 64.3303L51.4192 64.3478L51.4271 64.3524L51.4291 64.3535L51.4297 64.3539L51.4298 64.354L51.4299 64.354L51.5063 64.2209M47.6347 57.1212L47.713 56.9892L47.7131 56.9893L47.7133 56.9894L47.714 56.9898L47.7169 56.9916L47.7279 56.9981L47.7695 57.0233C47.8055 57.0452 47.8575 57.0771 47.9219 57.1175C48.0507 57.1982 48.2291 57.3129 48.4282 57.4485C48.824 57.7181 49.3102 58.0768 49.6468 58.4206C50.2458 59.0323 50.5643 59.4355 50.956 60.2092C51.3755 61.0381 51.5208 61.5732 51.6413 62.4809C51.6873 62.828 51.6914 63.2676 51.6845 63.6152C51.6811 63.7902 51.6748 63.9439 51.6694 64.0539C51.6667 64.1089 51.6642 64.1531 51.6624 64.1836L51.6603 64.2187L51.6597 64.228L51.6595 64.2304L51.6594 64.2311L51.6594 64.2312L51.6594 64.2313L51.5063 64.2209M51.5063 64.2209L51.4299 64.354L51.6427 64.4761L51.6594 64.2313L51.5063 64.2209Z" fill="#1D4406" stroke="#F6FCDF" stroke-width="0.306967"/>
<path d="M64.2687 33.9788L64.1824 34.1057L63.9656 33.9583L64.2002 33.8414L64.2687 33.9788ZM64.2687 33.9788L64.1824 34.1057L64.1825 34.1058L64.1827 34.1059L64.1834 34.1064L64.1862 34.1083L64.1968 34.1154L64.2373 34.1424C64.2724 34.1657 64.3234 34.1992 64.3873 34.2404C64.5151 34.3227 64.6947 34.4355 64.902 34.5582C65.3143 34.8019 65.8455 35.0897 66.2996 35.2484C67.1092 35.5313 67.609 35.6388 68.4734 35.6738C69.3944 35.7112 69.9382 35.6386 70.8153 35.3849C71.1464 35.2892 71.5451 35.12 71.8566 34.9774C72.0133 34.9057 72.1498 34.8398 72.2471 34.7919C72.2958 34.7679 72.3348 34.7483 72.3616 34.7347L72.3926 34.719L72.4007 34.7149L72.4028 34.7138L72.4034 34.7135L72.4035 34.7134L72.4036 34.7134L72.3332 34.577M64.2687 33.9788L64.2003 33.8414L64.2003 33.8413L64.2005 33.8412L64.2013 33.8408L64.2043 33.8393L64.2158 33.8337L64.2595 33.8124C64.2975 33.794 64.3525 33.7676 64.4214 33.7354C64.559 33.6711 64.7521 33.5833 64.974 33.4896C65.4153 33.3033 65.9803 33.0895 66.4516 32.9931C67.2905 32.8217 67.8019 32.7728 68.6644 32.8634C69.5883 32.9605 70.1167 33.1287 70.9446 33.5198C71.2612 33.6694 71.6327 33.9044 71.9211 34.0988C72.0661 34.1965 72.1919 34.2852 72.2814 34.3494C72.3262 34.3815 72.3619 34.4075 72.3865 34.4256L72.4149 34.4465L72.4224 34.452L72.4243 34.4535L72.4248 34.4538L72.425 34.454L72.425 34.454L72.3332 34.577M72.3332 34.577L72.4036 34.7134L72.6216 34.6008L72.425 34.454L72.3332 34.577Z" fill="#1D4406" stroke="#F6FCDF" stroke-width="0.306967"/>
<path d="M9.77431 34.8056L9.84689 34.9408L10.0779 34.8168L9.8567 34.6761L9.77431 34.8056ZM9.77431 34.8056L9.84685 34.9408L9.84679 34.9409L9.84657 34.941L9.84578 34.9414L9.84283 34.943L9.83154 34.949L9.78851 34.9716C9.75113 34.9911 9.69689 35.0192 9.62904 35.0534C9.4934 35.1219 9.30306 35.2155 9.08407 35.3159C8.64868 35.5154 8.09039 35.7462 7.62215 35.8568C6.78753 36.0538 6.27923 36.1087 5.41594 36.0535C4.49601 35.9947 3.9627 35.8659 3.11682 35.5222C2.79747 35.3925 2.41861 35.1828 2.12364 35.0085C1.97525 34.9208 1.84638 34.8411 1.75457 34.7832C1.70864 34.7543 1.67194 34.7308 1.64664 34.7145L1.61751 34.6957L1.60986 34.6907L1.60786 34.6894L1.60733 34.689L1.60718 34.6889L1.60713 34.6889L1.69134 34.5606M9.77431 34.8056L9.85667 34.6761L9.85661 34.676L9.8564 34.6759L9.85564 34.6754L9.85281 34.6736L9.842 34.6668L9.80076 34.6411C9.76493 34.6188 9.71292 34.5869 9.64779 34.5477C9.51759 34.4693 9.33471 34.3619 9.12375 34.2456C8.70431 34.0144 8.16465 33.7429 7.70588 33.598C6.88947 33.3401 6.38586 33.2381 5.51865 33.2384C4.58964 33.2388 4.04665 33.351 3.18245 33.6538C2.85204 33.7696 2.45809 33.9647 2.15105 34.1279C1.99657 34.21 1.86229 34.2851 1.76658 34.3396C1.71871 34.3669 1.68043 34.389 1.65405 34.4045L1.62366 34.4223L1.61568 34.427L1.61359 34.4282L1.61303 34.4286L1.61288 34.4287L1.61283 34.4287L1.69134 34.5606M1.69134 34.5606L1.6071 34.6889L1.40203 34.5542L1.6128 34.4287L1.69134 34.5606Z" fill="#1D4406" stroke="#F6FCDF" stroke-width="0.306967"/>
<path d="M8.46355 13.0266L8.31883 13.0777L8.23149 12.8305L8.4898 12.8754L8.46355 13.0266ZM8.46355 13.0266L8.31885 13.0778L8.31887 13.0778L8.31896 13.0781L8.31925 13.0789L8.32038 13.0821L8.32468 13.0941L8.34127 13.1398C8.35577 13.1794 8.377 13.2366 8.4041 13.3077C8.45828 13.4496 8.53603 13.647 8.6304 13.8686C8.81802 14.3092 9.07542 14.8558 9.34722 15.2528C9.8317 15.9604 10.1706 16.3431 10.8461 16.8835C11.5659 17.4594 12.047 17.7232 12.9038 18.0386C13.2273 18.1576 13.6486 18.2576 13.9841 18.3273C14.1528 18.3624 14.3018 18.3902 14.4086 18.4092C14.462 18.4188 14.505 18.4261 14.5347 18.4311L14.5689 18.4368L14.5779 18.4382L14.5803 18.4386L14.5809 18.4387L14.5811 18.4387L14.5812 18.4387L14.6053 18.2872M8.46355 13.0266L8.48984 12.8754L8.48992 12.8754L8.49016 12.8754L8.49104 12.8756L8.49434 12.8762L8.50692 12.8784L8.55475 12.8871C8.59622 12.8948 8.6562 12.9062 8.73074 12.9211C8.87977 12.9508 9.08731 12.9945 9.32159 13.0505C9.78738 13.1619 10.3692 13.3245 10.806 13.5262C11.5833 13.8851 12.0243 14.1488 12.6654 14.7329C13.3521 15.3586 13.678 15.8071 14.1132 16.6128C14.2795 16.9209 14.4395 17.3303 14.5566 17.6577C14.6156 17.8225 14.6644 17.9684 14.6984 18.0731C14.7154 18.1255 14.7288 18.1677 14.738 18.1968L14.7484 18.2305L14.7511 18.2393L14.7519 18.2417L14.752 18.2423L14.7521 18.2424L14.7521 18.2425L14.6053 18.2872M14.6053 18.2872L14.5812 18.4387L14.8235 18.4773L14.7521 18.2425L14.6053 18.2872Z" fill="#1D4406" stroke="#F6FCDF" stroke-width="0.306967"/>
<path d="M28.2294 9.65566L28.1274 9.77032L28.3233 9.9446L28.3794 9.68849L28.2294 9.65566ZM28.2294 9.65566L28.1274 9.77029L28.1273 9.77024L28.1271 9.77007L28.1265 9.76948L28.124 9.76725L28.1145 9.75871L28.0784 9.72608C28.0472 9.6977 28.0023 9.65641 27.9467 9.60448C27.8358 9.50067 27.6825 9.35412 27.5129 9.183C27.1758 8.84277 26.7671 8.39792 26.5022 7.99625C26.0302 7.28031 25.8039 6.82187 25.5588 5.99226C25.2977 5.10821 25.2352 4.56313 25.267 3.65066C25.279 3.30618 25.3457 2.8783 25.4079 2.5414C25.4392 2.3719 25.4697 2.22347 25.4925 2.11737C25.5038 2.0643 25.5133 2.02175 25.5199 1.99239L25.5276 1.95855L25.5296 1.94966L25.5302 1.94733L25.5303 1.9467L25.5303 1.94653L25.5304 1.94648L25.6798 1.98142M28.2294 9.65566L28.3794 9.68845L28.3794 9.68838L28.3794 9.68814L28.3796 9.68726L28.3803 9.68399L28.383 9.6715L28.393 9.62391C28.4016 9.58262 28.4137 9.52279 28.4281 9.44815C28.4569 9.29895 28.4949 9.09028 28.5315 8.8522C28.6044 8.37884 28.6738 7.77871 28.6521 7.29808C28.6135 6.44279 28.536 5.93484 28.2375 5.12063C27.9177 4.24839 27.6256 3.77711 27.0441 3.06975C26.8217 2.79931 26.5031 2.49648 26.2442 2.2643C26.1139 2.14748 25.9973 2.0472 25.9132 1.97608C25.8711 1.94051 25.8371 1.91219 25.8136 1.89272L25.7864 1.87031L25.7792 1.86444L25.7773 1.86291L25.7768 1.8625L25.7767 1.86238L25.7767 1.86235L25.6798 1.98142M25.6798 1.98142L25.5304 1.94645L25.5863 1.70758L25.7766 1.86233L25.6798 1.98142Z" fill="#1D4406" stroke="#F6FCDF" stroke-width="0.306967"/>
<path d="M47.6356 1.50465L47.788 1.48656L47.7571 1.22621L47.5452 1.3806L47.6356 1.50465ZM47.6356 1.50465L47.788 1.4866L47.788 1.48668L47.7881 1.48693L47.7882 1.48781L47.7886 1.49114L47.79 1.50384L47.7953 1.55216C47.7998 1.59409 47.8061 1.65482 47.8132 1.73051C47.8273 1.88181 47.8448 2.09318 47.858 2.3337C47.8845 2.8119 47.8951 3.41594 47.8267 3.89217C47.7048 4.74102 47.5699 5.23416 47.2028 6.01744C46.8116 6.85211 46.4966 7.30134 45.8674 7.96291C45.6298 8.21267 45.2961 8.48857 45.026 8.69935C44.8901 8.80539 44.7687 8.89616 44.6813 8.96045C44.6376 8.99261 44.6023 9.01818 44.5779 9.03576L44.5497 9.05597L44.5423 9.06127L44.5403 9.06265L44.5398 9.06302L44.5396 9.06313L44.5396 9.06316L44.451 8.93785M47.6356 1.50465L47.5452 1.38062L47.5451 1.38067L47.5449 1.38081L47.5442 1.38134L47.5415 1.38332L47.5312 1.39088L47.4922 1.41985C47.4584 1.44506 47.4096 1.48178 47.3493 1.52805C47.2287 1.62057 47.0619 1.75149 46.8765 1.9053C46.5079 2.21109 46.0578 2.61403 45.7551 2.98801C45.2164 3.65351 44.9373 4.08492 44.6204 4.89215C44.2809 5.75691 44.1867 6.30331 44.1525 7.21839C44.1394 7.56825 44.1768 8.00625 44.2164 8.35173C44.2364 8.52554 44.2571 8.67797 44.2728 8.78699C44.2807 8.84152 44.2873 8.88526 44.292 8.91545L44.2975 8.95025L44.299 8.9594L44.2994 8.9618L44.2995 8.96244L44.2995 8.96262L44.2995 8.96267L44.451 8.93785M44.451 8.93785L44.5396 9.06317L44.3392 9.20479L44.2995 8.96271L44.451 8.93785Z" fill="#1D4406" stroke="#F6FCDF" stroke-width="0.306967"/>
<path d="M58.5729 18.3397L58.4297 18.2844L58.3352 18.5289L58.5947 18.4916L58.5729 18.3397ZM58.5729 18.3397L58.4298 18.2843L58.4298 18.2842L58.4299 18.284L58.4302 18.2832L58.4314 18.2801L58.4361 18.2682L58.454 18.223C58.4696 18.1838 58.4925 18.1272 58.5217 18.057C58.58 17.9167 58.6635 17.7217 58.7643 17.5029C58.9647 17.068 59.238 16.5292 59.5213 16.1403C60.0263 15.4472 60.3763 15.0745 61.0673 14.5541C61.8036 13.9996 62.2922 13.75 63.1579 13.4598C63.4847 13.3502 63.9088 13.2626 64.2461 13.2027C64.4158 13.1726 64.5655 13.1492 64.6729 13.1333C64.7266 13.1253 64.7697 13.1192 64.7995 13.1151L64.8339 13.1104L64.843 13.1092L64.8453 13.1089L64.846 13.1089L64.8461 13.1088L64.8462 13.1088L64.8659 13.261M58.5729 18.3397L58.5948 18.4916L58.5948 18.4916L58.5951 18.4916L58.596 18.4914L58.5993 18.491L58.6119 18.4891L58.66 18.4818C58.7017 18.4753 58.7619 18.4657 58.8369 18.453C58.9867 18.4277 59.1955 18.3901 59.4313 18.3409C59.9001 18.2431 60.4865 18.0977 60.929 17.9089C61.7164 17.5728 62.165 17.3221 62.8228 16.7571C63.5275 16.1517 63.8665 15.7129 64.325 14.9203C64.5003 14.6172 64.6722 14.2126 64.7989 13.8888C64.8626 13.7258 64.9156 13.5814 64.9527 13.4777C64.9713 13.4258 64.9859 13.3841 64.9959 13.3552L65.0073 13.3219L65.0103 13.3131L65.0111 13.3108L65.0113 13.3102L65.0113 13.31L65.0114 13.31L64.8659 13.261M64.8659 13.261L64.8462 13.1088L65.0895 13.0774L65.0114 13.3099L64.8659 13.261Z" fill="#1D4406" stroke="#F6FCDF" stroke-width="0.306967"/>
<path d="M35.6613 46.3111C37.8357 46.9506 38.6923 46.9462 39.8751 46.6554C41.1786 46.3349 43.0191 45.3252 43.0191 45.3252C43.0191 45.3252 41.2377 44.2146 39.954 43.8221C38.7892 43.4659 37.3241 43.1724 35.7892 43.8809" stroke="#F6FCDF" stroke-width="0.306967"/>
<path d="M37.0684 37.7416C37.58 35.6952 39.8569 33.9791 39.8569 33.9791C39.8569 33.9791 41.4398 32.913 42.4314 32.1979C43.811 31.2032 45.8937 29.5558 45.8937 29.5558C45.8937 29.5558 42.9412 29.2689 41.1247 29.6827C39.9327 29.9543 38.1872 30.7652 38.1872 30.7652C38.1872 30.7652 34.5103 32.3696 32.336 36.3346" stroke="#F6FCDF" stroke-width="0.306967"/>
<path d="M32.3361 36.2532C31.137 38.4349 30.6733 41.6564 30.6733 45.1205V70.1015V77.7996M37.0685 37.6601C36.4689 38.8426 35.7528 41.5065 35.6695 44.1212M35.6695 45.9923V77.7996" stroke="#F6FCDF" stroke-width="0.306967"/>
<defs>
<linearGradient id="paint0_linear_98_1311" x1="32.9758" y1="11.4232" x2="39.8826" y2="11.4232" gradientUnits="userSpaceOnUse">
<stop stop-color="#31511E"/>
<stop offset="1" stop-color="#859F3E"/>
</linearGradient>
<linearGradient id="paint1_linear_98_1311" x1="60.0208" y1="22.2515" x2="63.2741" y2="28.3441" gradientUnits="userSpaceOnUse">
<stop stop-color="#31511E"/>
<stop offset="1" stop-color="#859F3E"/>
</linearGradient>
<linearGradient id="paint2_linear_98_1311" x1="60.7751" y1="50.7614" x2="56.9332" y2="56.501" gradientUnits="userSpaceOnUse">
<stop stop-color="#31511E"/>
<stop offset="1" stop-color="#859F3E"/>
</linearGradient>
<linearGradient id="paint3_linear_98_1311" x1="13.7021" y1="49.8013" x2="17.5441" y2="55.5409" gradientUnits="userSpaceOnUse">
<stop stop-color="#31511E"/>
<stop offset="1" stop-color="#859F3E"/>
</linearGradient>
<linearGradient id="paint4_linear_98_1311" x1="15.7534" y1="23.7092" x2="11.9115" y2="29.4488" gradientUnits="userSpaceOnUse">
<stop stop-color="#31511E"/>
<stop offset="1" stop-color="#859F3E"/>
</linearGradient>
<linearGradient id="paint5_linear_98_1311" x1="47.9112" y1="14.1422" x2="52.2378" y2="17.2339" gradientUnits="userSpaceOnUse">
<stop stop-color="#31511E"/>
<stop offset="1" stop-color="#859F3E"/>
</linearGradient>
<linearGradient id="paint6_linear_98_1311" x1="24.8666" y1="14.1422" x2="20.54" y2="17.2339" gradientUnits="userSpaceOnUse">
<stop stop-color="#31511E"/>
<stop offset="1" stop-color="#859F3E"/>
</linearGradient>
<linearGradient id="paint7_linear_98_1311" x1="62.3126" y1="38.5793" x2="60.8923" y2="43.7038" gradientUnits="userSpaceOnUse">
<stop stop-color="#31511E"/>
<stop offset="1" stop-color="#859F3E"/>
</linearGradient>
<linearGradient id="paint8_linear_98_1311" x1="13.4814" y1="38.1649" x2="14.4444" y2="43.3947" gradientUnits="userSpaceOnUse">
<stop stop-color="#31511E"/>
<stop offset="1" stop-color="#859F3E"/>
</linearGradient>
</defs>
</svg>
