<svg width="74" height="78" viewBox="0 0 74 78" fill="none" xmlns="http://www.w3.org/2000/svg">
<path d="M36.4327 1.0631L36.5628 0.981658L36.4327 0.773834L36.3026 0.981658L36.4327 1.0631ZM36.4327 1.0631L36.5629 0.981717L36.563 0.981849L36.5633 0.982333L36.5644 0.984174L36.5689 0.991312L36.5861 1.01908C36.6011 1.04345 36.6233 1.0794 36.6516 1.12591C36.7084 1.21892 36.7901 1.3542 36.8902 1.52365C37.0903 1.86248 37.3643 2.33826 37.6595 2.88622C38.2485 3.97946 38.9278 5.36999 39.2712 6.53518C39.8897 8.63413 40.0877 9.90777 40.0249 12.0984C39.958 14.4337 39.6648 15.787 38.8185 17.9632C38.5023 18.7762 37.974 19.7537 37.5279 20.5235C37.3043 20.9094 37.1003 21.2449 36.9521 21.484C36.878 21.6036 36.8179 21.6991 36.7762 21.7648L36.7281 21.8402L36.7155 21.8599L36.7123 21.8649L36.7114 21.8662L36.7112 21.8666L36.7112 21.8666L36.5823 21.7833M36.4327 1.0631L36.3026 0.981717L36.3025 0.981849L36.3022 0.982333L36.3011 0.984174L36.2966 0.991312L36.2794 1.01908C36.2643 1.04345 36.2422 1.0794 36.2138 1.12591C36.1571 1.21892 36.0754 1.3542 35.9753 1.52365C35.7752 1.86248 35.5012 2.33826 35.206 2.88622C34.6169 3.97946 33.9377 5.36999 33.5943 6.53518C32.9762 8.63269 32.7529 9.90802 32.8406 12.1002C32.9347 14.4495 33.2899 15.8036 34.1981 17.967C34.5413 18.7847 35.1074 19.7622 35.5842 20.5309C35.8233 20.9162 36.041 21.2509 36.1991 21.4892C36.2781 21.6085 36.3422 21.7036 36.3866 21.7691L36.4379 21.8443L36.4513 21.8639L36.4548 21.8689L36.4557 21.8702L36.4559 21.8705L36.456 21.8706L36.5823 21.7833M36.5823 21.7833L36.7111 21.8667L36.5866 22.0593L36.456 21.8707L36.5823 21.7833Z" fill="url(#paint0_linear_32_61)" stroke="#1D4406" stroke-width="0.306967"/>
<path d="M70.788 20.421L70.9211 20.4974L71.0431 20.2848L70.7985 20.2679L70.788 20.421ZM70.788 20.421L70.921 20.4975L70.921 20.4976L70.9207 20.4981L70.9196 20.5L70.9154 20.5073L70.899 20.5355C70.8846 20.5603 70.8633 20.5968 70.8357 20.6437C70.7803 20.7376 70.6995 20.8733 70.5972 21.0414C70.3926 21.3776 70.1019 21.8434 69.7576 22.3619C69.0707 23.3965 68.164 24.6507 67.2979 25.5024C65.7378 27.0366 64.7075 27.8112 62.7456 28.7877C60.6541 29.8287 59.3222 30.2075 57.0038 30.486C56.1377 30.5901 55.0267 30.5844 54.1375 30.5535C53.6918 30.538 53.2997 30.5161 53.019 30.4981C52.8786 30.4891 52.7661 30.481 52.6885 30.4752L52.5993 30.4683L52.576 30.4664L52.57 30.4659L52.5685 30.4658L52.5681 30.4658L52.568 30.4658L52.5807 30.3128M70.788 20.421L70.7985 20.2679L70.7983 20.2679L70.7977 20.2678L70.7956 20.2677L70.7872 20.2671L70.7546 20.265C70.726 20.2632 70.6838 20.2606 70.6294 20.2575C70.5207 20.2513 70.3629 20.2429 70.1662 20.2345C69.7731 20.2175 69.2243 20.1999 68.6019 20.1976C67.3601 20.193 65.8135 20.2488 64.624 20.4947C62.4826 20.9375 61.2524 21.3412 59.36 22.4512C57.3319 23.6407 56.3048 24.5919 54.8241 26.4121C54.2645 27.1 53.6689 28.0598 53.2155 28.8425C52.9882 29.2348 52.7955 29.5846 52.6597 29.8363C52.5917 29.9621 52.538 30.0635 52.5011 30.1336L52.459 30.2142L52.448 30.2353L52.4452 30.2407L52.4445 30.2421L52.4443 30.2425L52.4443 30.2426L52.5807 30.3128M52.5807 30.3128L52.5679 30.4658L52.3393 30.4466L52.4442 30.2426L52.5807 30.3128Z" fill="url(#paint1_linear_32_61)" stroke="#1D4406" stroke-width="0.306967"/>
<path d="M67.4616 59.3971L67.457 59.5505L67.702 59.558L67.6017 59.3343L67.4616 59.3971ZM67.4616 59.3971L67.4569 59.5505L67.4567 59.5505L67.4562 59.5505L67.454 59.5504L67.4456 59.5501L67.4129 59.549C67.3843 59.548 67.3421 59.5463 67.2877 59.544C67.1788 59.5395 67.021 59.5321 66.8245 59.521C66.4316 59.4989 65.8838 59.4619 65.2642 59.4024C64.0281 59.2838 62.4947 59.0748 61.3354 58.712C59.2471 58.0584 58.0786 57.5145 56.293 56.2438C54.3896 54.8892 53.428 53.8927 52.0904 51.9788C51.5906 51.2638 51.0723 50.2811 50.6807 49.4822C50.4844 49.0817 50.319 48.7255 50.2027 48.4694C50.1446 48.3414 50.0987 48.2383 50.0673 48.1671L50.0313 48.0851L50.022 48.0638L50.0196 48.0582L50.019 48.0568L50.0188 48.0564L50.0188 48.0563L50.1597 47.9956M67.4616 59.3971L67.6017 59.3342L67.6016 59.3341L67.6014 59.3335L67.6005 59.3316L67.597 59.3239L67.5835 59.2942C67.5716 59.2681 67.5541 59.2297 67.5312 59.1802C67.4855 59.0814 67.4185 58.9382 67.3334 58.7608C67.1631 58.406 66.9201 57.9137 66.629 57.3635C66.0482 56.2659 65.2705 54.9279 64.4932 53.9944C63.0939 52.3141 62.1584 51.419 60.2879 50.2726C58.2832 49.0439 56.9604 48.5859 54.6573 48.1371C53.7869 47.9675 52.6597 47.8942 51.7557 47.8629C51.3025 47.8472 50.9033 47.842 50.6173 47.8407C50.4743 47.8401 50.3595 47.8404 50.2804 47.8409L50.1894 47.8417L50.1656 47.842L50.1595 47.8421L50.158 47.8421L50.1575 47.8421L50.1574 47.8421L50.1597 47.9956M50.1597 47.9956L50.0188 48.0563L49.928 47.8456L50.1574 47.8421L50.1597 47.9956Z" fill="url(#paint2_linear_32_61)" stroke="#1D4406" stroke-width="0.306967"/>
<path d="M7.01578 58.437L7.02047 58.5904L6.7754 58.5979L6.87574 58.3742L7.01578 58.437ZM7.01578 58.437L7.02054 58.5904L7.0207 58.5904L7.02127 58.5904L7.02344 58.5903L7.03184 58.59L7.06449 58.5889C7.09313 58.5879 7.13532 58.5862 7.18974 58.584C7.2986 58.5794 7.45645 58.572 7.65294 58.5609C8.04586 58.5388 8.59362 58.5018 9.21322 58.4423C10.4494 58.3237 11.9828 58.1147 13.142 57.7519C15.2303 57.0983 16.3989 56.5544 18.1844 55.2837C20.0879 53.9291 21.0494 52.9326 22.3871 51.0187C22.8868 50.3037 23.4052 49.321 23.7967 48.5221C23.993 48.1216 24.1584 47.7654 24.2747 47.5093C24.3328 47.3813 24.3787 47.2782 24.4102 47.207L24.4461 47.1251L24.4554 47.1037L24.4578 47.0981L24.4584 47.0967L24.4586 47.0963L24.4586 47.0962L24.3177 47.0355M7.01578 58.437L6.87577 58.3741L6.87583 58.374L6.87607 58.3735L6.87696 58.3715L6.88041 58.3638L6.89391 58.3341C6.90578 58.308 6.92335 58.2696 6.94622 58.2201C6.99196 58.1213 7.05893 57.9781 7.14406 57.8007C7.3143 57.4459 7.55729 56.9536 7.84842 56.4034C8.42926 55.3058 9.20695 53.9678 9.98425 53.0343C11.3835 51.354 12.3191 50.4589 14.1896 49.3125C16.1942 48.0838 17.5171 47.6258 19.8201 47.177C20.6905 47.0074 21.8177 46.9341 22.7217 46.9028C23.1749 46.8871 23.5741 46.8819 23.8601 46.8806C24.0032 46.88 24.1179 46.8803 24.1971 46.8808L24.2881 46.8816L24.3118 46.8819L24.3179 46.882L24.3195 46.882L24.3199 46.882L24.32 46.882L24.3177 47.0355M24.3177 47.0355L24.4587 47.0962L24.5495 46.8855L24.3201 46.882L24.3177 47.0355Z" fill="url(#paint3_linear_32_61)" stroke="#1D4406" stroke-width="0.306967"/>
<path d="M22.4398 32.3449L22.4351 32.4983L22.6802 32.5058L22.5799 32.2821L22.4398 32.3449ZM22.4398 32.3449L22.4351 32.4983L22.4349 32.4983L22.4343 32.4983L22.4322 32.4982L22.4238 32.4979L22.3911 32.4968C22.3625 32.4957 22.3203 32.4941 22.2659 32.4918C22.157 32.4872 21.9992 32.4799 21.8027 32.4688C21.4097 32.4467 20.862 32.4097 20.2424 32.3502C19.0062 32.2316 17.4728 32.0226 16.3136 31.6598C14.2253 31.0062 13.0567 30.4622 11.2712 29.1915C9.36775 27.837 8.40622 26.8405 7.06854 24.9266C6.56882 24.2116 6.05045 23.2289 5.65886 22.43C5.46257 22.0295 5.29723 21.6733 5.18093 21.4172C5.12277 21.2892 5.07686 21.1861 5.04544 21.1149L5.00948 21.0329L5.00018 21.0116L4.99779 21.006L4.99718 21.0046L4.99702 21.0042L4.99697 21.0041L5.1379 20.9433M22.4398 32.3449L22.5798 32.282L22.5798 32.2819L22.5795 32.2813L22.5786 32.2794L22.5752 32.2717L22.5617 32.2419C22.5498 32.2159 22.5323 32.1775 22.5094 32.128C22.4636 32.0291 22.3967 31.886 22.3115 31.7086C22.1413 31.3538 21.8983 30.8615 21.6072 30.3113C21.0263 29.2137 20.2487 27.8757 19.4714 26.9422C18.0721 25.2618 17.1366 24.3668 15.266 23.2203C13.2614 21.9917 11.9386 21.5337 9.63553 21.0849C8.76507 20.9153 7.63792 20.842 6.73389 20.8107C6.28072 20.795 5.88147 20.7898 5.59546 20.7885C5.45243 20.7879 5.33766 20.7882 5.25855 20.7887L5.16754 20.7895L5.14382 20.7898L5.13771 20.7898L5.13614 20.7899L5.13572 20.7899L5.13561 20.7899L5.1379 20.9433M5.1379 20.9433L4.99695 21.0041L4.90615 20.7934L5.13555 20.7899L5.1379 20.9433Z" fill="url(#paint4_linear_32_61)" stroke="#1D4406" stroke-width="0.306967"/>
<path d="M45.1177 22.6295L45.1803 22.7696L44.941 22.8766L44.9648 22.6155L45.1177 22.6295ZM45.1177 22.6295L45.1804 22.7695L45.1805 22.7695L45.1809 22.7693L45.1826 22.7686L45.1888 22.7658L45.2129 22.7548C45.2341 22.7452 45.2652 22.731 45.3053 22.7126C45.3854 22.6756 45.5015 22.6215 45.6454 22.5528C45.9332 22.4153 46.3328 22.2191 46.7804 21.984C47.673 21.5152 48.7657 20.887 49.5403 20.2588C50.9338 19.1286 51.6688 18.3627 52.6792 16.8655C53.7562 15.2696 54.2212 14.2299 54.7333 12.3912C54.9248 11.7034 55.0619 10.8108 55.151 10.0952C55.1957 9.73629 55.2285 9.41997 55.2502 9.19331C55.261 9.07996 55.2691 8.98897 55.2744 8.92624L55.2804 8.85404L55.2819 8.8352L55.2823 8.83034L55.2824 8.82907L55.2824 8.82874L55.2824 8.82864L55.1294 8.81686M45.1177 22.6295L44.9648 22.6155L44.9648 22.6153L44.9649 22.6149L44.965 22.6131L44.9657 22.6063L44.9682 22.5799C44.9704 22.5568 44.9738 22.5228 44.9783 22.4789C44.9872 22.3911 45.0008 22.2638 45.0193 22.1053C45.0561 21.7885 45.1122 21.3469 45.1896 20.8473C45.344 19.8509 45.5844 18.6136 45.9278 17.6774C46.5451 15.9942 47.0165 15.0381 48.1222 13.6072C49.3071 12.0737 50.1795 11.3242 51.7857 10.2804C52.3937 9.88536 53.2175 9.48339 53.8844 9.18182C54.2189 9.03059 54.5157 8.90379 54.729 8.81477C54.8357 8.77025 54.9215 8.73516 54.9807 8.71116L55.0489 8.68369L55.0668 8.67659L55.0714 8.67476L55.0726 8.67429L55.0729 8.67416L55.073 8.67413L55.1294 8.81686M55.1294 8.81686L55.2824 8.8286L55.3012 8.58399L55.073 8.67411L55.1294 8.81686Z" fill="url(#paint5_linear_32_61)" stroke="#1D4406" stroke-width="0.306967"/>
<path d="M27.6601 22.6295L27.5974 22.7696L27.8367 22.8766L27.813 22.6155L27.6601 22.6295ZM27.6601 22.6295L27.5974 22.7695L27.5972 22.7695L27.5968 22.7693L27.5952 22.7686L27.589 22.7658L27.5648 22.7548C27.5437 22.7452 27.5126 22.731 27.4725 22.7126C27.3923 22.6756 27.2763 22.6215 27.1324 22.5528C26.8446 22.4153 26.4449 22.2191 25.9974 21.984C25.1048 21.5152 24.012 20.887 23.2375 20.2588C21.844 19.1286 21.109 18.3627 20.0986 16.8655C19.0215 15.2696 18.5566 14.2299 18.0445 12.3912C17.8529 11.7034 17.7158 10.8108 17.6268 10.0952C17.5821 9.73629 17.5493 9.41997 17.5276 9.19331C17.5168 9.07996 17.5087 8.98897 17.5034 8.92624L17.4973 8.85404L17.4958 8.8352L17.4955 8.83034L17.4954 8.82907L17.4953 8.82874L17.4953 8.82864L17.6484 8.81686M27.6601 22.6295L27.8129 22.6155L27.8129 22.6153L27.8129 22.6149L27.8127 22.6131L27.8121 22.6063L27.8096 22.5799C27.8074 22.5568 27.804 22.5228 27.7995 22.4789C27.7905 22.3911 27.7769 22.2638 27.7585 22.1053C27.7217 21.7885 27.6655 21.3469 27.5881 20.8473C27.4337 19.8509 27.1934 18.6136 26.85 17.6774C26.2326 15.9942 25.7612 15.0381 24.6556 13.6072C23.4707 12.0737 22.5983 11.3242 20.992 10.2804C20.3841 9.88536 19.5603 9.48339 18.8933 9.18182C18.5589 9.03059 18.262 8.90379 18.0488 8.81477C17.9421 8.77025 17.8563 8.73516 17.797 8.71116L17.7288 8.68369L17.711 8.67659L17.7064 8.67476L17.7052 8.67429L17.7049 8.67416L17.7048 8.67413L17.6484 8.81686M17.6484 8.81686L17.4953 8.8286L17.4766 8.58399L17.7047 8.67411L17.6484 8.81686Z" fill="url(#paint6_linear_32_61)" stroke="#1D4406" stroke-width="0.306967"/>
<path d="M53.3821 38.866L53.272 38.973L53.0893 38.7849L53.3427 38.7177L53.3821 38.866ZM53.3821 38.866L53.272 38.973L53.2721 38.9731L53.2724 38.9735L53.2737 38.9747L53.2784 38.9796L53.297 38.9985C53.3132 39.0151 53.3372 39.0395 53.3684 39.0708C53.4306 39.1334 53.5212 39.2239 53.6351 39.3355C53.8629 39.5587 54.1843 39.8668 54.5586 40.2066C55.3051 40.8843 56.27 41.6953 57.1257 42.2074C58.6653 43.1287 59.6368 43.5565 61.3897 43.9921C63.2582 44.4565 64.3943 44.5367 66.2972 44.3872C67.0089 44.3312 67.8944 44.1538 68.5972 43.9921C68.9496 43.911 69.258 43.8333 69.4784 43.7759C69.5886 43.7473 69.6768 43.7236 69.7375 43.7071L69.8074 43.688L69.8256 43.683L69.8303 43.6816L69.8316 43.6813L69.8319 43.6812L69.832 43.6812L69.7906 43.5334M53.3821 38.866L53.3428 38.7177L53.3429 38.7176L53.3434 38.7175L53.3451 38.7171L53.3517 38.7153L53.3773 38.7086C53.3998 38.7028 53.4329 38.6943 53.4757 38.6835C53.5613 38.6618 53.6855 38.6309 53.8406 38.5939C54.1509 38.5198 54.585 38.4211 55.0808 38.3225C56.0697 38.1258 57.3144 37.9272 58.3116 37.9287C60.1045 37.9313 61.1642 38.0462 62.8876 38.5941C64.7344 39.1812 65.7376 39.7436 67.269 40.8944C67.8486 41.33 68.5087 41.966 69.0208 42.4891C69.2775 42.7514 69.4984 42.9868 69.6552 43.1566C69.7336 43.2415 69.796 43.3101 69.8389 43.3575L69.8881 43.4122L69.9008 43.4265L69.9041 43.4302L69.905 43.4311L69.9052 43.4314L69.9053 43.4314L69.7906 43.5334M69.7906 43.5334L69.832 43.6812L70.0682 43.6149L69.9053 43.4315L69.7906 43.5334Z" fill="url(#paint7_linear_32_61)" stroke="#1D4406" stroke-width="0.306967"/>
<path d="M22.3518 39.2379L22.452 39.3541L22.6506 39.1828L22.4041 39.0936L22.3518 39.2379ZM22.3518 39.2379L22.452 39.3541L22.4519 39.3542L22.4515 39.3545L22.4502 39.3557L22.445 39.3601L22.4249 39.3773C22.4072 39.3924 22.3811 39.4146 22.3474 39.443C22.2799 39.4999 22.1817 39.582 22.0584 39.6831C21.8117 39.8854 21.4644 40.1639 21.0616 40.4694C20.2583 41.0787 19.2256 41.8014 18.3281 42.2361C16.7133 43.0181 15.7078 43.3586 13.9234 43.638C12.0212 43.9358 10.8824 43.9156 9.0002 43.5988C8.29614 43.4803 7.42973 43.2256 6.74396 43.0025C6.40006 42.8906 6.09971 42.7861 5.88529 42.7095C5.77805 42.6712 5.69225 42.6398 5.63318 42.6181L5.56526 42.5929L5.54756 42.5862L5.54299 42.5845L5.54181 42.5841L5.54149 42.5839L5.54141 42.5839L5.59569 42.4403M22.3518 39.2379L22.404 39.0935L22.4039 39.0935L22.4034 39.0933L22.4018 39.0927L22.3953 39.0904L22.3704 39.0815C22.3485 39.0737 22.3163 39.0623 22.2746 39.0477C22.1913 39.0186 22.0703 38.9769 21.919 38.9263C21.6165 38.8252 21.1928 38.6886 20.7076 38.5466C19.7399 38.2635 18.5175 37.9559 17.5241 37.8695C15.738 37.7141 14.6722 37.7351 12.9073 38.1289C11.0159 38.5509 9.96699 39.0227 8.3401 40.034C7.72433 40.4168 7.0107 40.9921 6.45457 41.468C6.17568 41.7066 5.93487 41.9216 5.76374 42.0769C5.67816 42.1546 5.60996 42.2174 5.56309 42.2609L5.50926 42.311L5.49526 42.3241L5.49165 42.3275L5.49072 42.3284L5.49047 42.3286L5.4904 42.3287L5.59569 42.4403M5.59569 42.4403L5.54136 42.5839L5.31192 42.4971L5.49036 42.3287L5.59569 42.4403Z" fill="url(#paint8_linear_32_61)" stroke="#1D4406" stroke-width="0.306967"/>
<path d="M64.776 48.2609L64.6659 48.3678L64.4833 48.1797L64.7367 48.1125L64.776 48.2609ZM64.776 48.2609L64.666 48.3678L64.666 48.3679L64.6662 48.3681L64.6668 48.3687L64.6692 48.3711L64.6781 48.3802L64.7123 48.4148C64.742 48.4447 64.7852 48.4879 64.8395 48.5411C64.948 48.6474 65.1011 48.7942 65.2795 48.9561C65.6341 49.278 66.0964 49.667 66.5092 49.914C67.2451 50.3544 67.7129 50.5605 68.5524 50.7692C69.447 50.9915 69.9943 51.0301 70.9045 50.9585C71.2482 50.9315 71.6727 50.8463 72.0066 50.7695C72.1746 50.7308 72.3215 50.6938 72.4265 50.6664C72.4791 50.6528 72.5211 50.6415 72.5502 50.6336L72.5837 50.6244L72.5925 50.622L72.5948 50.6214L72.5954 50.6212L72.5956 50.6211L72.5956 50.6211L72.5542 50.4733M64.776 48.2609L64.7367 48.1125L64.7368 48.1125L64.737 48.1124L64.7379 48.1122L64.7411 48.1114L64.7535 48.1081L64.8006 48.0961C64.8415 48.0857 64.9007 48.071 64.9747 48.0533C65.1225 48.018 65.3293 47.971 65.5656 47.924C66.0353 47.8306 66.6318 47.7351 67.1129 47.7358C67.9691 47.7371 68.4799 47.7923 69.3064 48.055C70.1918 48.3365 70.6753 48.6077 71.4074 49.1579C71.6873 49.3682 72.0037 49.6733 72.247 49.9218C72.3693 50.0469 72.4746 50.159 72.5493 50.24C72.5867 50.2804 72.6165 50.3132 72.637 50.3358L72.6605 50.362L72.6667 50.3689L72.6683 50.3707L72.6688 50.3712L72.6689 50.3714L72.6689 50.3714L72.5542 50.4733M72.5542 50.4733L72.5956 50.6211L72.8318 50.5549L72.6689 50.3714L72.5542 50.4733Z" fill="#1D4406" stroke="#1D4406" stroke-width="0.306967"/>
<path d="M9.18126 47.8374L9.28151 47.9536L9.48004 47.7823L9.23353 47.6931L9.18126 47.8374ZM9.18126 47.8374L9.28147 47.9536L9.28142 47.9537L9.28123 47.9538L9.28055 47.9544L9.27801 47.9566L9.2683 47.9649L9.23121 47.9963C9.19897 48.0235 9.15213 48.0627 9.09335 48.1109C8.97584 48.2072 8.8104 48.3399 8.61847 48.4855C8.23686 48.7749 7.74211 49.1216 7.3091 49.3313C6.53728 49.7051 6.05306 49.8691 5.19842 50.0029C4.28771 50.1455 3.73915 50.1357 2.83879 49.9842C2.49888 49.927 2.08349 49.8047 1.75769 49.6987C1.59378 49.6453 1.45066 49.5955 1.34847 49.559C1.29736 49.5408 1.25642 49.5258 1.22819 49.5154L1.19565 49.5034L1.18711 49.5002L1.18487 49.4993L1.18427 49.4991L1.1841 49.499L1.18405 49.499L1.23835 49.3554M9.18126 47.8374L9.23349 47.693L9.23342 47.693L9.23319 47.6929L9.23235 47.6926L9.2292 47.6915L9.21717 47.6872L9.17131 47.671C9.1315 47.6571 9.07379 47.6372 9.0017 47.6131C8.85757 47.5649 8.65572 47.4999 8.42452 47.4322C7.96486 47.2977 7.37906 47.15 6.89976 47.1083C6.04682 47.0341 5.53309 47.044 4.68669 47.2329C3.77997 47.4352 3.27437 47.6627 2.49666 48.1462C2.19932 48.331 1.85721 48.6071 1.593 48.8332C1.46007 48.9469 1.34531 49.0494 1.26375 49.1234C1.22295 49.1604 1.19041 49.1904 1.16801 49.2112L1.14222 49.2352L1.13546 49.2415L1.13369 49.2432L1.13322 49.2436L1.13308 49.2437L1.13304 49.2438L1.23835 49.3554M1.23835 49.3554L1.18402 49.499L0.954577 49.4122L1.13302 49.2438L1.23835 49.3554Z" fill="#1D4406" stroke="#1D4406" stroke-width="0.306967"/>
<path d="M25.6008 56.4481L25.7543 56.4445L25.7481 56.1824L25.5226 56.3161L25.6008 56.4481ZM25.6008 56.4481L25.7543 56.4445L25.7543 56.4446L25.7543 56.4448L25.7543 56.4457L25.7544 56.4491L25.7546 56.4618L25.7554 56.5105C25.7559 56.5526 25.7564 56.6137 25.7563 56.6897C25.7561 56.8416 25.7535 57.0537 25.7441 57.2944C25.7253 57.773 25.6789 58.3753 25.5659 58.843C25.3645 59.6766 25.1837 60.1548 24.7443 60.8999C24.2761 61.694 23.9201 62.1115 23.2313 62.7107C22.9712 62.937 22.6129 63.1802 22.3242 63.3645C22.1789 63.4573 22.0495 63.5362 21.9564 63.592C21.9099 63.6199 21.8723 63.642 21.8463 63.6572L21.8164 63.6746L21.8085 63.6792L21.8064 63.6804L21.8058 63.6807L21.8057 63.6808L21.8056 63.6808L21.7292 63.5477M25.6008 56.4481L25.5225 56.3161L25.5225 56.3161L25.5223 56.3162L25.5215 56.3167L25.5186 56.3184L25.5076 56.325L25.466 56.3501C25.43 56.372 25.378 56.404 25.3136 56.4444C25.1848 56.5251 25.0064 56.6397 24.8073 56.7753C24.4115 57.045 23.9254 57.4037 23.5888 57.7474C22.9898 58.3592 22.6712 58.7623 22.2796 59.5361C21.86 60.3649 21.7147 60.9 21.5942 61.8078C21.5482 62.1548 21.5442 62.5944 21.551 62.9421C21.5545 63.117 21.5607 63.2707 21.5661 63.3807C21.5688 63.4358 21.5713 63.4799 21.5731 63.5104L21.5753 63.5456L21.5759 63.5548L21.576 63.5573L21.5761 63.5579L21.5761 63.5581L21.5761 63.5582L21.7292 63.5477M21.7292 63.5477L21.8056 63.6809L21.5928 63.8029L21.5761 63.5582L21.7292 63.5477Z" fill="#1D4406" stroke="#1D4406" stroke-width="0.306967"/>
<path d="M47.6347 57.1212L47.4813 57.1176L47.4875 56.8555L47.713 56.9892L47.6347 57.1212ZM47.6347 57.1212L47.4813 57.1176L47.4813 57.1177L47.4813 57.118L47.4813 57.1189L47.4812 57.1222L47.4809 57.135L47.4802 57.1836C47.4797 57.2258 47.4792 57.2868 47.4793 57.3628C47.4795 57.5148 47.482 57.7269 47.4915 57.9676C47.5103 58.4461 47.5567 59.0485 47.6697 59.5161C47.8711 60.3497 48.0519 60.8279 48.4913 61.5731C48.9595 62.3671 49.3155 62.7846 50.0043 63.3839C50.2643 63.6101 50.6226 63.8533 50.9114 64.0377C51.0567 64.1304 51.1861 64.2093 51.2791 64.2651C51.3257 64.293 51.3632 64.3151 51.3892 64.3303L51.4192 64.3478L51.4271 64.3524L51.4292 64.3535L51.4297 64.3539L51.4299 64.354L51.4299 64.354L51.5064 64.2209M47.6347 57.1212L47.713 56.9892L47.7131 56.9893L47.7133 56.9894L47.7141 56.9898L47.717 56.9916L47.7279 56.9981L47.7695 57.0233C47.8056 57.0452 47.8576 57.0771 47.922 57.1175C48.0507 57.1982 48.2292 57.3129 48.4283 57.4485C48.8241 57.7181 49.3102 58.0768 49.6468 58.4206C50.2458 59.0323 50.5644 59.4355 50.956 60.2092C51.3756 61.0381 51.5209 61.5732 51.6413 62.4809C51.6874 62.828 51.6914 63.2676 51.6846 63.6152C51.6811 63.7902 51.6749 63.9439 51.6695 64.0539C51.6668 64.1089 51.6643 64.1531 51.6625 64.1836L51.6603 64.2187L51.6597 64.228L51.6595 64.2304L51.6595 64.2311L51.6595 64.2312L51.6595 64.2313L51.5064 64.2209M51.5064 64.2209L51.43 64.354L51.6428 64.4761L51.6595 64.2313L51.5064 64.2209Z" fill="#1D4406" stroke="#1D4406" stroke-width="0.306967"/>
<path d="M64.2686 33.9788L64.1824 34.1057L63.9655 33.9583L64.2002 33.8414L64.2686 33.9788ZM64.2686 33.9788L64.1824 34.1057L64.1825 34.1058L64.1827 34.1059L64.1834 34.1064L64.1862 34.1083L64.1968 34.1154L64.2372 34.1424C64.2724 34.1657 64.3234 34.1992 64.3873 34.2404C64.5151 34.3227 64.6946 34.4355 64.902 34.5582C65.3142 34.8019 65.8454 35.0897 66.2996 35.2484C67.1092 35.5313 67.609 35.6388 68.4733 35.6738C69.3944 35.7112 69.9382 35.6386 70.8153 35.3849C71.1464 35.2892 71.5451 35.12 71.8566 34.9774C72.0133 34.9057 72.1498 34.8398 72.2471 34.7919C72.2958 34.7679 72.3347 34.7483 72.3616 34.7347L72.3925 34.719L72.4006 34.7149L72.4028 34.7138L72.4033 34.7135L72.4035 34.7134L72.4036 34.7134L72.3332 34.577M64.2686 33.9788L64.2002 33.8414L64.2003 33.8413L64.2005 33.8412L64.2013 33.8408L64.2043 33.8393L64.2158 33.8337L64.2595 33.8124C64.2974 33.794 64.3525 33.7676 64.4213 33.7354C64.559 33.6711 64.7521 33.5833 64.974 33.4896C65.4152 33.3033 65.9802 33.0895 66.4516 32.9931C67.2904 32.8217 67.8019 32.7728 68.6644 32.8634C69.5883 32.9605 70.1166 33.1287 70.9446 33.5198C71.2612 33.6694 71.6327 33.9044 71.921 34.0988C72.0661 34.1965 72.1918 34.2852 72.2814 34.3494C72.3261 34.3815 72.3619 34.4075 72.3865 34.4256L72.4149 34.4465L72.4223 34.452L72.4243 34.4535L72.4248 34.4538L72.4249 34.454L72.425 34.454L72.3332 34.577M72.3332 34.577L72.4036 34.7134L72.6216 34.6008L72.425 34.454L72.3332 34.577Z" fill="#1D4406" stroke="#1D4406" stroke-width="0.306967"/>
<path d="M9.77432 34.8056L9.8469 34.9408L10.0779 34.8168L9.85671 34.6761L9.77432 34.8056ZM9.77432 34.8056L9.84686 34.9408L9.8468 34.9409L9.84658 34.941L9.84579 34.9414L9.84284 34.943L9.83155 34.949L9.78851 34.9716C9.75114 34.9911 9.6969 35.0192 9.62905 35.0534C9.49341 35.1219 9.30307 35.2155 9.08408 35.3159C8.64868 35.5154 8.0904 35.7462 7.62216 35.8568C6.78754 36.0538 6.27924 36.1087 5.41595 36.0535C4.49602 35.9947 3.96271 35.8659 3.11683 35.5222C2.79748 35.3925 2.41861 35.1828 2.12365 35.0085C1.97525 34.9208 1.84639 34.8411 1.75457 34.7832C1.70865 34.7543 1.67194 34.7308 1.64665 34.7145L1.61752 34.6957L1.60987 34.6907L1.60787 34.6894L1.60733 34.689L1.60718 34.6889L1.60714 34.6889L1.69135 34.5606M9.77432 34.8056L9.85668 34.6761L9.85661 34.676L9.8564 34.6759L9.85565 34.6754L9.85282 34.6736L9.84201 34.6668L9.80077 34.6411C9.76494 34.6188 9.71292 34.5869 9.6478 34.5477C9.5176 34.4693 9.33471 34.3619 9.12375 34.2456C8.70432 34.0144 8.16466 33.7429 7.70588 33.598C6.88948 33.3401 6.38587 33.2381 5.51866 33.2384C4.58964 33.2388 4.04666 33.351 3.18246 33.6538C2.85204 33.7696 2.4581 33.9647 2.15106 34.1279C1.99658 34.21 1.8623 34.2851 1.76659 34.3396C1.71872 34.3669 1.68044 34.389 1.65406 34.4045L1.62367 34.4223L1.61569 34.427L1.6136 34.4282L1.61304 34.4286L1.61288 34.4287L1.61284 34.4287L1.69135 34.5606M1.69135 34.5606L1.60711 34.6889L1.40203 34.5542L1.61281 34.4287L1.69135 34.5606Z" fill="#1D4406" stroke="#1D4406" stroke-width="0.306967"/>
<path d="M8.46351 13.0266L8.3188 13.0777L8.23145 12.8305L8.48977 12.8754L8.46351 13.0266ZM8.46351 13.0266L8.31881 13.0778L8.31883 13.0778L8.31892 13.0781L8.31922 13.0789L8.32034 13.0821L8.32465 13.0941L8.34124 13.1398C8.35573 13.1794 8.37696 13.2366 8.40406 13.3077C8.45824 13.4496 8.53599 13.647 8.63036 13.8686C8.81798 14.3092 9.07538 14.8558 9.34719 15.2528C9.83167 15.9604 10.1706 16.3431 10.8461 16.8835C11.5659 17.4594 12.047 17.7232 12.9038 18.0386C13.2273 18.1576 13.6486 18.2576 13.984 18.3273C14.1528 18.3624 14.3017 18.3902 14.4086 18.4092C14.462 18.4188 14.505 18.4261 14.5346 18.4311L14.5689 18.4368L14.5779 18.4382L14.5803 18.4386L14.5809 18.4387L14.5811 18.4387L14.5811 18.4387L14.6052 18.2872M8.46351 13.0266L8.48981 12.8754L8.48988 12.8754L8.49012 12.8754L8.491 12.8756L8.4943 12.8762L8.50688 12.8784L8.55471 12.8871C8.59618 12.8948 8.65616 12.9062 8.73071 12.9211C8.87973 12.9508 9.08727 12.9945 9.32155 13.0505C9.78734 13.1619 10.3692 13.3245 10.806 13.5262C11.5833 13.8851 12.0243 14.1488 12.6653 14.7329C13.352 15.3586 13.678 15.8071 14.1131 16.6128C14.2795 16.9209 14.4395 17.3303 14.5566 17.6577C14.6155 17.8225 14.6643 17.9684 14.6984 18.0731C14.7154 18.1255 14.7288 18.1677 14.7379 18.1968L14.7484 18.2305L14.7511 18.2393L14.7518 18.2417L14.752 18.2423L14.7521 18.2424L14.7521 18.2425L14.6052 18.2872M14.6052 18.2872L14.5811 18.4387L14.8234 18.4773L14.7521 18.2425L14.6052 18.2872Z" fill="#1D4406" stroke="#1D4406" stroke-width="0.306967"/>
<path d="M28.2293 9.65566L28.1273 9.77032L28.3232 9.9446L28.3793 9.68849L28.2293 9.65566ZM28.2293 9.65566L28.1273 9.77029L28.1272 9.77024L28.127 9.77007L28.1264 9.76948L28.1239 9.76725L28.1144 9.75871L28.0783 9.72608C28.0471 9.6977 28.0021 9.65641 27.9466 9.60448C27.8357 9.50067 27.6824 9.35412 27.5128 9.183C27.1757 8.84277 26.767 8.39792 26.5021 7.99625C26.0301 7.28031 25.8038 6.82187 25.5587 5.99226C25.2976 5.10821 25.2351 4.56313 25.2669 3.65066C25.2789 3.30618 25.3456 2.8783 25.4078 2.5414C25.4391 2.3719 25.4696 2.22347 25.4924 2.11737C25.5037 2.0643 25.5132 2.02175 25.5198 1.99239L25.5275 1.95855L25.5295 1.94966L25.5301 1.94733L25.5302 1.9467L25.5302 1.94653L25.5303 1.94648L25.6797 1.98142M28.2293 9.65566L28.3793 9.68845L28.3793 9.68838L28.3793 9.68814L28.3795 9.68726L28.3802 9.68399L28.3829 9.6715L28.3929 9.62391C28.4015 9.58262 28.4136 9.52279 28.428 9.44815C28.4568 9.29895 28.4948 9.09028 28.5314 8.8522C28.6043 8.37884 28.6737 7.77871 28.652 7.29808C28.6134 6.44279 28.5359 5.93484 28.2374 5.12063C27.9176 4.24839 27.6255 3.77711 27.044 3.06975C26.8216 2.79931 26.503 2.49648 26.2441 2.2643C26.1138 2.14748 25.9972 2.0472 25.9131 1.97608C25.871 1.94051 25.837 1.91219 25.8135 1.89272L25.7863 1.87031L25.7791 1.86444L25.7772 1.86291L25.7767 1.8625L25.7766 1.86238L25.7765 1.86235L25.6797 1.98142M25.6797 1.98142L25.5303 1.94645L25.5862 1.70758L25.7765 1.86233L25.6797 1.98142Z" fill="#1D4406" stroke="#1D4406" stroke-width="0.306967"/>
<path d="M47.6357 1.50465L47.7881 1.48656L47.7572 1.22621L47.5453 1.3806L47.6357 1.50465ZM47.6357 1.50465L47.7881 1.4866L47.7881 1.48668L47.7881 1.48693L47.7882 1.48781L47.7886 1.49114L47.7901 1.50384L47.7954 1.55216C47.7999 1.59409 47.8061 1.65482 47.8132 1.73051C47.8274 1.88181 47.8448 2.09318 47.8581 2.3337C47.8845 2.8119 47.8952 3.41594 47.8268 3.89217C47.7049 4.74102 47.57 5.23416 47.2029 6.01744C46.8117 6.85211 46.4967 7.30134 45.8674 7.96291C45.6299 8.21267 45.2961 8.48857 45.026 8.69935C44.8902 8.80539 44.7688 8.89616 44.6814 8.96045C44.6377 8.99261 44.6024 9.01818 44.578 9.03576L44.5498 9.05597L44.5423 9.06127L44.5404 9.06265L44.5398 9.06302L44.5397 9.06313L44.5397 9.06316L44.451 8.93785M47.6357 1.50465L47.5453 1.38062L47.5452 1.38067L47.545 1.38081L47.5443 1.38134L47.5416 1.38332L47.5313 1.39088L47.4922 1.41985C47.4584 1.44506 47.4096 1.48178 47.3493 1.52805C47.2288 1.62057 47.0619 1.75149 46.8765 1.9053C46.5079 2.21109 46.0578 2.61403 45.7551 2.98801C45.2165 3.65351 44.9374 4.08492 44.6205 4.89215C44.281 5.75691 44.1868 6.30331 44.1525 7.21839C44.1394 7.56825 44.1769 8.00625 44.2165 8.35173C44.2364 8.52554 44.2571 8.67797 44.2729 8.78699C44.2808 8.84152 44.2874 8.88526 44.2921 8.91545L44.2976 8.95025L44.299 8.9594L44.2994 8.9618L44.2995 8.96244L44.2996 8.96262L44.2996 8.96267L44.451 8.93785M44.451 8.93785L44.5396 9.06317L44.3393 9.20479L44.2996 8.96271L44.451 8.93785Z" fill="#1D4406" stroke="#1D4406" stroke-width="0.306967"/>
<path d="M58.5728 18.3397L58.4297 18.2844L58.3351 18.5289L58.5947 18.4916L58.5728 18.3397ZM58.5728 18.3397L58.4297 18.2843L58.4297 18.2842L58.4298 18.284L58.4301 18.2832L58.4313 18.2801L58.436 18.2682L58.4539 18.223C58.4696 18.1838 58.4925 18.1272 58.5216 18.057C58.5799 17.9167 58.6634 17.7217 58.7642 17.5029C58.9647 17.068 59.238 16.5292 59.5213 16.1403C60.0262 15.4472 60.3762 15.0745 61.0672 14.5541C61.8036 13.9996 62.2921 13.75 63.1578 13.4598C63.4846 13.3502 63.9087 13.2626 64.246 13.2027C64.4158 13.1726 64.5655 13.1492 64.6728 13.1333C64.7265 13.1253 64.7697 13.1192 64.7995 13.1151L64.8339 13.1104L64.8429 13.1092L64.8453 13.1089L64.8459 13.1089L64.8461 13.1088L64.8461 13.1088L64.8658 13.261M58.5728 18.3397L58.5947 18.4916L58.5948 18.4916L58.595 18.4916L58.5959 18.4914L58.5992 18.491L58.6119 18.4891L58.6599 18.4818C58.7016 18.4753 58.7619 18.4657 58.8368 18.453C58.9867 18.4277 59.1954 18.3901 59.4312 18.3409C59.9001 18.2431 60.4864 18.0977 60.9289 17.9089C61.7164 17.5728 62.1649 17.3221 62.8228 16.7571C63.5275 16.1517 63.8664 15.7129 64.325 14.9203C64.5003 14.6172 64.6721 14.2126 64.7988 13.8888C64.8625 13.7258 64.9155 13.5814 64.9527 13.4777C64.9712 13.4258 64.9858 13.3841 64.9958 13.3552L65.0073 13.3219L65.0102 13.3131L65.011 13.3108L65.0112 13.3102L65.0113 13.31L65.0113 13.31L64.8658 13.261M64.8658 13.261L64.8462 13.1088L65.0895 13.0774L65.0113 13.3099L64.8658 13.261Z" fill="#1D4406" stroke="#1D4406" stroke-width="0.306967"/>
<path d="M35.6615 46.3111C37.8359 46.9506 38.6925 46.9462 39.8753 46.6554C41.1788 46.3349 43.0193 45.3252 43.0193 45.3252C43.0193 45.3252 41.2379 44.2146 39.9542 43.8221C38.7894 43.4659 37.3243 43.1724 35.7894 43.8809" stroke="#1D4406" stroke-width="0.306967"/>
<path d="M37.0684 37.7416C37.58 35.6952 39.8569 33.9791 39.8569 33.9791C39.8569 33.9791 41.4398 32.913 42.4314 32.1979C43.811 31.2032 45.8937 29.5558 45.8937 29.5558C45.8937 29.5558 42.9412 29.2689 41.1247 29.6827C39.9327 29.9543 38.1872 30.7652 38.1872 30.7652C38.1872 30.7652 34.5103 32.3696 32.336 36.3346" stroke="#1D4406" stroke-width="0.306967"/>
<path d="M32.3361 36.2532C31.137 38.4349 30.6733 41.6564 30.6733 45.1205V70.1015V77.7996M37.0685 37.6601C36.4689 38.8426 35.7528 41.5065 35.6695 44.1212M35.6695 45.9923V77.7996" stroke="#1D4406" stroke-width="0.306967"/>
<defs>
<linearGradient id="paint0_linear_32_61" x1="32.9758" y1="11.4232" x2="39.8825" y2="11.4232" gradientUnits="userSpaceOnUse">
<stop stop-color="#31511E"/>
<stop offset="1" stop-color="#859F3E"/>
</linearGradient>
<linearGradient id="paint1_linear_32_61" x1="60.0208" y1="22.2515" x2="63.2741" y2="28.3441" gradientUnits="userSpaceOnUse">
<stop stop-color="#31511E"/>
<stop offset="1" stop-color="#859F3E"/>
</linearGradient>
<linearGradient id="paint2_linear_32_61" x1="60.7752" y1="50.7614" x2="56.9333" y2="56.501" gradientUnits="userSpaceOnUse">
<stop stop-color="#31511E"/>
<stop offset="1" stop-color="#859F3E"/>
</linearGradient>
<linearGradient id="paint3_linear_32_61" x1="13.7022" y1="49.8013" x2="17.5441" y2="55.5409" gradientUnits="userSpaceOnUse">
<stop stop-color="#31511E"/>
<stop offset="1" stop-color="#859F3E"/>
</linearGradient>
<linearGradient id="paint4_linear_32_61" x1="15.7534" y1="23.7092" x2="11.9115" y2="29.4488" gradientUnits="userSpaceOnUse">
<stop stop-color="#31511E"/>
<stop offset="1" stop-color="#859F3E"/>
</linearGradient>
<linearGradient id="paint5_linear_32_61" x1="47.9111" y1="14.1422" x2="52.2377" y2="17.2339" gradientUnits="userSpaceOnUse">
<stop stop-color="#31511E"/>
<stop offset="1" stop-color="#859F3E"/>
</linearGradient>
<linearGradient id="paint6_linear_32_61" x1="24.8666" y1="14.1422" x2="20.54" y2="17.2339" gradientUnits="userSpaceOnUse">
<stop stop-color="#31511E"/>
<stop offset="1" stop-color="#859F3E"/>
</linearGradient>
<linearGradient id="paint7_linear_32_61" x1="62.3126" y1="38.5793" x2="60.8923" y2="43.7038" gradientUnits="userSpaceOnUse">
<stop stop-color="#31511E"/>
<stop offset="1" stop-color="#859F3E"/>
</linearGradient>
<linearGradient id="paint8_linear_32_61" x1="13.4813" y1="38.1649" x2="14.4443" y2="43.3947" gradientUnits="userSpaceOnUse">
<stop stop-color="#31511E"/>
<stop offset="1" stop-color="#859F3E"/>
</linearGradient>
</defs>
</svg>
